<svg width="117" height="35" fill="none" xmlns="http://www.w3.org/2000/svg"><path fill-rule="evenodd" clip-rule="evenodd" d="M17.433 0a17.433 17.433 0 1017.434 17.43C34.864 7.802 27.06 0 17.434 0zm7.995 25.145a1.087 1.087 0 01-1.495.362c-4.095-2.499-9.247-3.067-15.316-1.68a1.087 1.087 0 11-.483-2.117c6.641-1.518 12.337-.865 16.934 1.942.51.313.672.98.36 1.493zm2.134-4.747a1.359 1.359 0 01-1.874.447c-4.684-2.879-11.829-3.713-17.373-2.032a1.361 1.361 0 01-1.637-1.95 1.36 1.36 0 01.848-.65c6.333-1.92 14.205-.99 19.584 2.318a1.36 1.36 0 01.452 1.867zm.183-4.942c-5.62-3.331-14.89-3.643-20.254-2.016a1.633 1.633 0 11-.948-3.122c6.158-1.874 16.398-1.508 22.866 2.331a1.63 1.63 0 11-1.664 2.807zm19.686.639c-3.01-.718-3.54-1.223-3.54-2.29 0-1 .941-1.666 2.343-1.666 1.357 0 2.706.513 4.113 1.564a.205.205 0 00.223.008.193.193 0 00.057-.054l1.47-2.082a.208.208 0 00-.038-.268 8.892 8.892 0 00-5.787-1.997c-3.25 0-5.521 1.957-5.521 4.749 0 2.993 1.959 4.05 5.341 4.869 2.882.665 3.367 1.22 3.367 2.214 0 1.1-.983 1.785-2.565 1.785-1.757 0-3.19-.59-4.788-1.98a.196.196 0 00-.28.021l-1.649 1.961a.196.196 0 00.02.273 9.825 9.825 0 006.632 2.555c3.502 0 5.765-1.913 5.765-4.876 0-2.511-1.495-3.896-5.163-4.786zm13.097-2.97c-1.518 0-2.763.598-3.791 1.824v-1.38a.208.208 0 00-.198-.197h-2.704a.208.208 0 00-.198.197v15.323a.209.209 0 00.197.197h2.696a.208.208 0 00.199-.197v-4.837a4.842 4.842 0 003.8 1.715c2.82 0 5.676-2.17 5.676-6.321s-2.866-6.323-5.677-6.323zm2.532 6.324c0 2.113-1.302 3.589-3.167 3.589-1.866 0-3.233-1.543-3.233-3.59 0-2.046 1.391-3.589 3.243-3.589 1.853 0 3.157 1.51 3.157 3.59zm10.452-6.323c-3.633 0-6.478 2.798-6.478 6.368 0 3.54 2.826 6.3 6.433 6.3 3.645 0 6.5-2.788 6.5-6.345 0-3.558-2.834-6.324-6.455-6.324zm0 9.935c-1.932 0-3.389-1.553-3.389-3.61s1.406-3.566 3.343-3.566c1.939 0 3.412 1.544 3.412 3.61 0 2.064-1.415 3.555-3.366 3.555v.01zm14.214-9.69H84.76v-3.033a.208.208 0 00-.198-.198h-2.694a.208.208 0 00-.198.198v3.034h-1.297a.208.208 0 00-.196.197v2.317a.208.208 0 00.196.198h1.297v5.994c0 2.421 1.206 3.649 3.583 3.649a4.918 4.918 0 002.525-.624.197.197 0 00.1-.17v-2.207a.197.197 0 00-.285-.177 3.385 3.385 0 01-1.582.38c-.864 0-1.25-.393-1.25-1.272v-5.575h2.967a.209.209 0 00.196-.197v-2.316a.208.208 0 00-.2-.197h.002zm10.334.013v-.373c0-1.094.416-1.583 1.361-1.583a4.577 4.577 0 011.52.28.197.197 0 00.26-.187V9.248a.213.213 0 00-.041-.117.206.206 0 00-.099-.073 7.4 7.4 0 00-2.24-.323c-2.498 0-3.806 1.402-3.806 4.054v.57H93.72a.209.209 0 00-.208.198v2.33a.209.209 0 00.208.197h1.295v9.245a.208.208 0 00.196.198h2.696a.208.208 0 00.198-.198v-9.247h2.518l3.856 9.244c-.438.971-.868 1.164-1.458 1.164a3.105 3.105 0 01-1.486-.417.209.209 0 00-.157-.015.207.207 0 00-.116.106l-.913 2.006a.193.193 0 00-.008.143.199.199 0 00.092.11 5.678 5.678 0 002.879.737c1.991 0 3.09-.926 4.06-3.42l4.676-12.075a.201.201 0 00-.021-.182.2.2 0 00-.163-.087h-2.806a.211.211 0 00-.114.039.212.212 0 00-.073.095l-2.875 8.21-3.148-8.23a.194.194 0 00-.183-.126H98.06z" fill="#fff"/><path d="M91.434 13.372h-1.427a.831.831 0 00-.832.831v10.491c0 .46.373.832.832.832h1.427c.459 0 .831-.373.831-.832v-10.49a.831.831 0 00-.831-.832zM90.733 11.885a1.934 1.934 0 100-3.868 1.934 1.934 0 000 3.868z" fill="#fff"/><path fill-rule="evenodd" clip-rule="evenodd" d="M114.347 17.153a1.9 1.9 0 01-1.754-1.177 1.904 1.904 0 113.662-.73 1.897 1.897 0 01-1.175 1.766 1.886 1.886 0 01-.733.14zm0-3.614a1.712 1.712 0 101.698 1.706 1.697 1.697 0 00-1.687-1.706h-.011zm.417 1.902l.537.752h-.437l-.483-.69h-.417v.69h-.379V14.2h.887c.462 0 .766.238.766.636a.594.594 0 01-.46.603l-.014.002zm-.317-.9h-.493v.625h.493c.245 0 .394-.12.394-.315 0-.192-.138-.31-.394-.31z" fill="#fff"/></svg>